<svg width="12" height="35" viewBox="0 0 12 35" fill="none" xmlns="http://www.w3.org/2000/svg">
<path id="Vector" d="M7.3781 0.096508C7.3781 0.144722 7.29978 0.192936 7.20188 0.192936C7.09419 0.192936 6.93755 0.27972 6.83965 0.385788C6.64385 0.607571 6.14456 0.867928 5.93897 0.867928C5.87044 0.867928 5.78233 0.935425 5.75296 1.01257C5.7138 1.08971 5.6159 1.15721 5.52779 1.16685C5.43968 1.16685 5.24388 1.25364 5.07745 1.35971C4.92081 1.45613 4.71522 1.5622 4.6369 1.60077C4.55858 1.6297 4.41173 1.6972 4.32362 1.74541C4.22572 1.79363 4.08866 1.8322 4.01034 1.8322C3.93202 1.8322 3.84391 1.8997 3.81454 1.98648C3.77538 2.07327 3.68727 2.12148 3.60895 2.08291C3.52084 2.05398 3.43273 2.09255 3.40336 2.16969C3.3642 2.24684 3.2663 2.31434 3.1684 2.31434C3.06071 2.31434 2.95302 2.35291 2.92365 2.41076C2.89428 2.45898 2.78659 2.50719 2.68869 2.50719C2.59079 2.50719 2.45373 2.57469 2.3852 2.65183C2.31667 2.72897 2.17961 2.79647 2.08171 2.79647C1.97402 2.79647 1.81738 2.83504 1.71948 2.88326C1.63137 2.93147 1.47473 2.99897 1.37683 3.0279C1.22998 3.07611 1.20061 3.1629 1.22998 3.49075L1.25935 3.90539L2.31667 3.93431C2.90407 3.94396 3.3642 4.00181 3.3642 4.05003C3.3642 4.10789 3.45231 4.14646 3.55021 4.14646C3.73622 4.14646 4.0495 4.60931 4.0495 4.86966C4.0495 4.93716 4.10824 5.04323 4.18656 5.10109C4.41173 5.29394 4.46068 6.5475 4.45089 13.3071C4.45089 20.4137 4.3432 25.5244 4.19635 25.7462C4.1474 25.8233 4.06908 26.6526 4.02992 27.5783C3.94181 29.584 3.86349 30.4808 3.7558 30.6158C3.70685 30.6736 3.64811 30.8472 3.61874 31.0015C3.58937 31.1654 3.52084 31.3004 3.4621 31.3197C3.41315 31.339 3.3642 31.4258 3.3642 31.5222C3.3642 31.7343 2.37541 32.6889 2.16003 32.6889C2.06213 32.6889 1.96423 32.7564 1.93486 32.8336C1.8957 32.9204 1.74885 32.9782 1.54326 32.9782C1.35725 32.9782 1.2104 33.0168 1.2104 33.0747C1.2104 33.1229 1.0146 33.1711 0.779638 33.1711C0.388038 33.1711 0.348878 33.1904 0.299928 33.4314C0.270558 33.605 0.299928 33.7593 0.397828 33.8654C0.574048 34.0582 0.867748 34.0968 0.965648 33.9425C1.00481 33.8846 2.4831 33.8461 5.08724 33.8461C8.5529 33.8461 9.18925 33.8654 9.44379 33.9907C9.64938 34.1064 9.96266 34.1354 10.5892 34.1161L11.441 34.0871V33.6532V33.2193L11.0494 33.1904C10.834 33.1711 10.6186 33.1132 10.5696 33.065C10.5109 33.0168 10.2857 32.9782 10.0606 32.9782C9.81581 32.9782 9.60043 32.9204 9.5319 32.8336C9.46337 32.7564 9.27736 32.6889 9.12072 32.6889C8.96408 32.6889 8.67038 32.5829 8.47458 32.4479C8.27878 32.3129 8.0634 32.2068 7.99487 32.2068C7.92634 32.2068 7.8676 32.12 7.8676 32.0236C7.8676 31.9175 7.82844 31.8018 7.7697 31.7729C7.72075 31.744 7.6718 31.3293 7.6718 30.8665C7.6718 30.3265 7.63264 29.989 7.55432 29.9118C7.3781 29.7383 7.31936 14.7824 7.48579 13.9917C7.55432 13.6735 7.64243 11.9378 7.69138 9.83567C7.81865 4.07896 7.85781 3.30754 8.01445 3.18218C8.12214 3.0954 8.1613 2.83504 8.1613 2.20827C8.1613 1.6972 8.20046 1.35006 8.2592 1.35006C8.31794 1.35006 8.3571 1.11864 8.3571 0.829353C8.3571 0.540073 8.40605 0.270077 8.455 0.24115C8.69975 0.096508 8.50395 8.01086e-05 7.9655 8.01086e-05C7.64243 8.01086e-05 7.3781 0.0386505 7.3781 0.096508Z" fill="white"/>
</svg>
