<svg width="14" height="17" viewBox="0 0 14 17" fill="none" xmlns="http://www.w3.org/2000/svg">
<g id="single-01">
<path id="Shape" fill-rule="evenodd" clip-rule="evenodd" d="M13 13.4594C13 12.6671 12.5521 11.9595 11.8733 11.6904C10.876 11.2947 9.23114 10.8308 7 10.8308C4.76886 10.8308 3.124 11.2947 2.12671 11.6904C1.44786 11.9595 1 12.6671 1 13.4594V15.5357H13V13.4594Z" stroke="#66615B" stroke-linecap="square"/>
<path id="Shape_2" fill-rule="evenodd" clip-rule="evenodd" d="M7 8.94894V8.94894C5.34314 8.94894 4 7.47444 4 5.65553V4.71456C4 2.89565 5.34314 1.42114 7 1.42114V1.42114C8.65686 1.42114 10 2.89565 10 4.71456V5.65553C10 7.47444 8.65686 8.94894 7 8.94894Z" stroke="#66615B" stroke-linecap="square"/>
</g>
</svg>
